<svg id="_041---Fruit-Crate" data-name="041---Fruit-Crate" xmlns="http://www.w3.org/2000/svg" width="40.003" height="40" viewBox="0 0 40.003 40">
  <circle id="Oval" cx="0.667" cy="0.667" r="0.667" transform="translate(2.667 33.333)" fill="#ce4b63"/>
  <circle id="Oval-2" data-name="Oval" cx="0.667" cy="0.667" r="0.667" transform="translate(36.003 33.333)" fill="#ce4b63"/>
  <circle id="Oval-3" data-name="Oval" cx="0.667" cy="0.667" r="0.667" transform="translate(2.667 25.332)" fill="#ce4b63"/>
  <circle id="Oval-4" data-name="Oval" cx="0.667" cy="0.667" r="0.667" transform="translate(36.003 25.332)" fill="#ce4b63"/>
  <path id="Shape" d="M38.669,14.669h-.7c.019-.221.031-.443.031-.667,0-3.309-2.093-6-4.667-6a3.792,3.792,0,0,0-1.763.439,1.969,1.969,0,0,1-.237.09V8.086a1.919,1.919,0,0,1,2-1.417h1.333A2.667,2.667,0,0,0,37.336,4V3.335a.667.667,0,0,0-.667-.667H35.336a2.667,2.667,0,0,0-2.667,2.667v.057a3.279,3.279,0,0,0-1.333.527V4.668a.667.667,0,1,0-1.333,0V8.531a1.969,1.969,0,0,1-.237-.09,3.816,3.816,0,0,0-1.48-.421,5.378,5.378,0,0,0-2.328-2.667,2.006,2.006,0,0,1-.91-1.08,5.334,5.334,0,0,0-10.257.586.6.6,0,0,1-.6.477,5.738,5.738,0,0,0-.909.077,6.6,6.6,0,0,0-.12-2.226,1.167,1.167,0,0,0-.526-.733,1.457,1.457,0,0,0-1.1-.185,12.958,12.958,0,0,0-1.457.4A8.714,8.714,0,0,0,8.273.351,1.442,1.442,0,0,0,6.386.359a8.667,8.667,0,0,0-1.8,2.314,12.873,12.873,0,0,0-1.447-.4,1.467,1.467,0,0,0-1.107.181,1.165,1.165,0,0,0-.525.727A5.516,5.516,0,0,0,2.37,7.817a4.491,4.491,0,0,0,.372.406,6.244,6.244,0,0,0-.9,1.5c-.005.013-.012.023-.017.036a6.352,6.352,0,0,0-.489,2.451c0,.142.008.3.015.453v.018a17.873,17.873,0,0,0,.216,1.989H1.333A1.333,1.333,0,0,0,0,16v4a1.333,1.333,0,0,0,1.333,1.333V22.67A1.333,1.333,0,0,0,0,24v4a1.333,1.333,0,0,0,1.333,1.333V30.67A1.333,1.333,0,0,0,0,32v4a1.333,1.333,0,0,0,1.333,1.333v1.333A1.333,1.333,0,0,0,2.667,40H5.334a1.333,1.333,0,0,0,1.333-1.333V37.338H17.335v1.333A1.333,1.333,0,0,0,18.668,40h2.667a1.333,1.333,0,0,0,1.333-1.333V37.338H34v1.333A1.333,1.333,0,0,0,35.336,40H38a1.333,1.333,0,0,0,1.333-1.333V37.152A1.329,1.329,0,0,0,40,36V32a1.329,1.329,0,0,0-.667-1.148v-1.7A1.329,1.329,0,0,0,40,28V24a1.329,1.329,0,0,0-.667-1.148v-1.7A1.329,1.329,0,0,0,40,20V16a1.333,1.333,0,0,0-1.333-1.333ZM35.336,4H36a1.333,1.333,0,0,1-1.333,1.333H34A1.333,1.333,0,0,1,35.336,4Zm-4.674,6h.013a3.282,3.282,0,0,0,1.513-.377,2.474,2.474,0,0,1,1.147-.289c1.838,0,3.334,2.094,3.334,4.667a6.529,6.529,0,0,1-.037.667H27.4A3.719,3.719,0,0,1,27.335,14a2.934,2.934,0,0,1,.525-1.8.667.667,0,0,0-1.05-.822A4.32,4.32,0,0,0,26,14a5.2,5.2,0,0,0,.051.667H24.705A6.528,6.528,0,0,1,24.668,14c0-2.573,1.5-4.667,3.334-4.667a2.467,2.467,0,0,1,1.147.288A3.286,3.286,0,0,0,30.662,10ZM14.194,6.669a1.949,1.949,0,0,0,1.9-1.524,4,4,0,0,1,7.693-.437A3.334,3.334,0,0,0,25.3,6.516a4.033,4.033,0,0,1,1.591,1.667c-2.038.641-3.557,3-3.557,5.82,0,.223.013.445.031.667H13.1a17.873,17.873,0,0,0,.215-1.989v-.018c.007-.154.015-.311.015-.453a6.352,6.352,0,0,0-.489-2.451c0-.013-.011-.023-.017-.036a6.263,6.263,0,0,0-.9-1.5,4.439,4.439,0,0,0,.945-1.329,4.294,4.294,0,0,1,1.324-.224Zm-2.366-3.1a.275.275,0,0,1,.055,0,4.154,4.154,0,0,1-.633,3.42,3.015,3.015,0,0,1-.275.3,5.912,5.912,0,0,0-.745-.511,4.609,4.609,0,0,0,.436-1.905,4.252,4.252,0,0,0-.115-.952,11.589,11.589,0,0,1,1.276-.352ZM7.284,1.346a.147.147,0,0,1,.09-.011A6.875,6.875,0,0,1,9.113,3.756a3.059,3.059,0,0,1,.221,1.119,3.3,3.3,0,0,1-.328,1.377,5.716,5.716,0,0,0-3.344,0,3.3,3.3,0,0,1-.328-1.377,3.081,3.081,0,0,1,.225-1.127,6.852,6.852,0,0,1,1.725-2.4Zm-4.5,2.223a.333.333,0,0,1,.067,0,11.618,11.618,0,0,1,1.267.35A4.228,4.228,0,0,0,4,4.875a4.609,4.609,0,0,0,.436,1.9,5.978,5.978,0,0,0-.745.51,3.186,3.186,0,0,1-.281-.307,4.151,4.151,0,0,1-.627-3.412Zm-.05,9.767H6A.667.667,0,1,0,6,12H2.677a5.022,5.022,0,0,1,.233-1.333H6A.667.667,0,1,0,6,9.335H3.573a4.534,4.534,0,0,1,7.522,0H8.667a.667.667,0,1,0,0,1.333h3.091A5.022,5.022,0,0,1,11.991,12H8.667a.667.667,0,1,0,0,1.333h3.267q-.061.6-.183,1.333H2.916q-.121-.729-.183-1.333ZM1.333,16H38.669v4H1.333ZM38,22.67H35.336V21.336H38Zm-15.334,0V21.336H34V22.67Zm-11.4,0c.211-.491.393-.942.538-1.333h5.529V22.67Zm-4.6,0V21.336h3.708c-.16.4-.35.851-.566,1.333Zm12-1.333h2.667V22.67H18.668Zm-16,0H5.334V22.67H2.667ZM1.333,24H38.669v4H1.333ZM38,30.67H35.336V29.337H38Zm-15.334,0V29.337H34V30.67Zm-16,0V29.337H17.335V30.67Zm12-1.333h2.667V30.67H18.668Zm-16,0H5.334V30.67H2.667ZM1.333,32H38.669v4H1.333Zm4,6.667H2.667V37.338H5.334Zm16,0H18.668V37.338h2.667Zm14,0V37.338H38v1.333Z" transform="translate(0 -0.004)" fill="#ce4b63"/>
  <circle id="Oval-5" data-name="Oval" cx="0.667" cy="0.667" r="0.667" transform="translate(2.667 17.332)" fill="#ce4b63"/>
  <circle id="Oval-6" data-name="Oval" cx="0.667" cy="0.667" r="0.667" transform="translate(36.003 17.332)" fill="#ce4b63"/>
  <path id="Shape-2" data-name="Shape" d="M21.669,11.971a.577.577,0,0,0,.082-.005A4.605,4.605,0,0,0,25.7,8.379,1.342,1.342,0,0,1,27,7.333a1.319,1.319,0,0,1,1.267.915A6,6,0,0,0,29.889,10.7a.667.667,0,1,0,.9-.985,4.667,4.667,0,0,1-1.257-1.9A2.667,2.667,0,0,0,24.4,8.1a3.274,3.274,0,0,1-2.808,2.547.667.667,0,0,0,.08,1.328Z" transform="translate(-7.001 -2.002)" fill="#ce4b63"/>
  <path id="Shape-3" data-name="Shape" d="M29.443,14.424a2.092,2.092,0,0,0-4.027.221,2.167,2.167,0,0,1-1.836,1.667.667.667,0,0,0,.08,1.328.577.577,0,0,0,.082-.005,3.474,3.474,0,0,0,2.978-2.7.763.763,0,0,1,.741-.6.751.751,0,0,1,.72.523,4.461,4.461,0,0,0,.645,1.211.667.667,0,0,0,1.067-.8,3.081,3.081,0,0,1-.45-.843Z" transform="translate(-7.665 -4.335)" fill="#ce4b63"/>
</svg>
