<svg xmlns="http://www.w3.org/2000/svg" width="40" height="40" viewBox="0 0 40 40">
  <g id="discount" transform="translate(0 0)">
    <path id="Caminho_34" data-name="Caminho 34" d="M176.605,131.247l5.524-16.573a1.172,1.172,0,0,0-2.224-.741l-5.524,16.573a1.172,1.172,0,1,0,2.224.741Z" transform="translate(-160.702 -104.293)" fill="#59a8b2"/>
    <path id="Caminho_35" data-name="Caminho 35" d="M268.049,196.234a3.516,3.516,0,1,0-3.516-3.516A3.52,3.52,0,0,0,268.049,196.234Zm0-4.687a1.172,1.172,0,1,1-1.172,1.172A1.173,1.173,0,0,1,268.049,191.547Z" transform="translate(-243.866 -174.421)" fill="#59a8b2"/>
    <path id="Caminho_36" data-name="Caminho 36" d="M98.343,189.2a3.516,3.516,0,1,0,3.516,3.516A3.52,3.52,0,0,0,98.343,189.2Zm0,4.688a1.172,1.172,0,1,1,1.172-1.172A1.173,1.173,0,0,1,98.343,193.891Z" transform="translate(-87.418 -174.421)" fill="#59a8b2"/>
    <path id="Caminho_37" data-name="Caminho 37" d="M39.766,14.531,35.679,9.083l.159-1.116a1.172,1.172,0,0,0-.331-.994L33.021,4.487,35.507,2A1.172,1.172,0,0,0,33.85.343L31.364,2.829,28.878.343a1.173,1.173,0,0,0-.994-.331l-11.6,1.657A1.172,1.172,0,0,0,15.62,2L1.257,16.364a4.3,4.3,0,0,0,0,6.077L13.41,34.594a4.287,4.287,0,0,0,.809.634V35.7a4.3,4.3,0,0,0,4.3,4.3H35.7A4.3,4.3,0,0,0,40,35.7V15.235a1.172,1.172,0,0,0-.234-.7ZM2.914,20.783a1.955,1.955,0,0,1,0-2.762L17,3.934,27.635,2.415l2.072,2.072L28.049,6.144l-.829-.829a1.172,1.172,0,1,0-1.657,1.657l3.315,3.315A1.172,1.172,0,0,0,30.535,8.63L29.707,7.8l1.657-1.657,2.072,2.072L31.916,18.85,17.83,32.937a1.953,1.953,0,0,1-2.762,0ZM37.656,35.7A1.955,1.955,0,0,1,35.7,37.657H18.516a1.955,1.955,0,0,1-1.947-1.809,4.28,4.28,0,0,0,2.918-1.254L33.85,20.231a1.172,1.172,0,0,0,.331-.663l1.029-7.2,2.446,3.261Z" transform="translate(0)" fill="#59a8b2"/>
  </g>
</svg>
