<svg xmlns="http://www.w3.org/2000/svg" width="40" height="37.095" viewBox="0 0 40 37.095">
  <g id="fruit" transform="translate(0 -18.592)">
    <g id="Grupo_100" data-name="Grupo 100" transform="translate(0 18.592)">
      <g id="Grupo_99" data-name="Grupo 99" transform="translate(0 0)">
        <path id="Caminho_45" data-name="Caminho 45" d="M39.756,34.294a.781.781,0,0,0-.264-.456A4.925,4.925,0,0,1,37.8,30.567l-.023-.126a.781.781,0,0,0-.66-.633,2.609,2.609,0,0,0-.362-.024A3.59,3.59,0,0,0,34.305,30.8a.782.782,0,0,0-.208.435c-.056.42-.085.8-.11,1.143-.1,1.277-.18,1.413-.569,1.536a.781.781,0,0,0-.51.513A18.049,18.049,0,0,1,31.466,37.8c-.291-.555-.612-1.054-.911-1.519-.731-1.136-1.309-2.034-1.112-3.146.64-3.605.315-6.321-.965-8.072a5.139,5.139,0,0,0-2.962-1.95,3.443,3.443,0,0,1,2.315-2.983.781.781,0,0,0-.4-1.509,5,5,0,0,0-3.459,4.3,5.184,5.184,0,0,0-3.311,1.122c-1.7,1.361-2.732,3.889-3.058,7.514-.1,1.091-.8,1.728-1.781,2.608a11.318,11.318,0,0,0-2.4,2.736,9.677,9.677,0,0,0-2.83-.68,3.427,3.427,0,0,1,2.3-2.874.781.781,0,0,0-.4-1.509,4.171,4.171,0,0,0-1.174.53,4.619,4.619,0,0,0-5.72-3.547.781.781,0,0,0-.553.553,4.636,4.636,0,0,0,1.2,4.461,4.585,4.585,0,0,0,3,1.344,5.855,5.855,0,0,0-.215,1.032,9.754,9.754,0,0,0,.737,19.479,9.661,9.661,0,0,0,5.533-1.721c.257.113.514.221.773.323a19.219,19.219,0,0,0,7.063,1.4A15.73,15.73,0,0,0,33.2,52.138a19.809,19.809,0,0,0,6.324-10.384A20.282,20.282,0,0,0,39.756,34.294ZM16.864,35.321c1.051-.948,2.138-1.928,2.291-3.629.287-3.185,1.12-5.349,2.477-6.434a3.763,3.763,0,0,1,2.96-.737,3.709,3.709,0,0,1,2.625,1.462c1.019,1.394,1.25,3.707.688,6.876-.3,1.716.53,3.011,1.336,4.265a11.969,11.969,0,0,1,1.234,2.269A18.739,18.739,0,0,1,19.45,46.985,9.752,9.752,0,0,0,14.819,37.6,10.146,10.146,0,0,1,16.864,35.321ZM7.338,32.726a3.07,3.07,0,0,1-.878-2.487,3.1,3.1,0,0,1,.325-.017,3.036,3.036,0,0,1,2.161.9A3.069,3.069,0,0,1,9.825,33.6a3.094,3.094,0,0,1-.325.017h0A3.036,3.036,0,0,1,7.338,32.726Zm2.415,21.4a8.183,8.183,0,1,1,8.081-6.849q-.754.1-1.517.123c-.005-.026-1.177.021-1.605-.024a17.177,17.177,0,0,1-3.341-.552.781.781,0,0,0-.654.118,4.482,4.482,0,0,0-1.809,2.3.781.781,0,0,0,.235.856,26.4,26.4,0,0,0,4.479,3.057A8.118,8.118,0,0,1,9.753,54.124ZM38.018,41.349c-2.144,8-7.712,12.775-14.9,12.775A20.385,20.385,0,0,1,10.6,49.271a2.782,2.782,0,0,1,.737-.845,18.547,18.547,0,0,0,4.44.545A18.864,18.864,0,0,0,27.468,44.84a20.813,20.813,0,0,0,4.5-4.867c.015-.02.028-.04.041-.061a19.932,19.932,0,0,0,2.278-4.672c1.095-.551,1.178-1.667,1.259-2.749.019-.247.038-.5.066-.769a2.116,2.116,0,0,1,.759-.331,6.123,6.123,0,0,0,1.892,3.446A18.9,18.9,0,0,1,38.018,41.349Z" transform="translate(0 -18.592)" fill="#ccc729"/>
      </g>
    </g>
    <g id="Grupo_102" data-name="Grupo 102" transform="translate(24.112 26.068)">
      <g id="Grupo_101" data-name="Grupo 101" transform="translate(0 0)">
        <path id="Caminho_46" data-name="Caminho 46" d="M309.716,114.351a.781.781,0,0,0-.6,1.441c.568.238.882,1.953.382,4.77a.781.781,0,1,0,1.539.273C311.48,118.316,311.614,115.147,309.716,114.351Z" transform="translate(-308.632 -114.29)" fill="#ccc729"/>
      </g>
    </g>
    <g id="Grupo_106" data-name="Grupo 106" transform="translate(21.742 49.328)">
      <g id="Grupo_105" data-name="Grupo 105" transform="translate(0 0)">
        <path id="Caminho_48" data-name="Caminho 48" d="M285.125,412.44a.781.781,0,0,0-1.051-.34,11.279,11.279,0,0,1-4.963,1.312.781.781,0,0,0-.059,1.561c.012,0,.054,0,.124,0a12.913,12.913,0,0,0,5.61-1.485A.781.781,0,0,0,285.125,412.44Z" transform="translate(-278.3 -412.015)" fill="#ccc729"/>
      </g>
    </g>
  </g>
</svg>
