<svg xmlns="http://www.w3.org/2000/svg" xmlns:xlink="http://www.w3.org/1999/xlink" width="71" height="71" viewBox="0 0 71 71">
  <defs>
    <clipPath id="clip-icon-combos">
      <rect width="71" height="71"/>
    </clipPath>
  </defs>
  <g id="icon-combos" clip-path="url(#clip-icon-combos)">
    <rect width="71" height="71" fill="rgba(255,255,255,0)"/>
    <g id="icon-combos-2" data-name="icon-combos" transform="translate(1 1)">
      <g id="_041---Fruit-Crate" data-name="041---Fruit-Crate" transform="translate(0 0)">
        <circle id="Oval" cx="1.158" cy="1.158" r="1.158" transform="translate(4.631 57.885)" fill="#ce4b63"/>
        <circle id="Oval-2" data-name="Oval" cx="1.158" cy="1.158" r="1.158" transform="translate(62.521 57.885)" fill="#ce4b63"/>
        <circle id="Oval-3" data-name="Oval" cx="1.158" cy="1.158" r="1.158" transform="translate(4.631 43.991)" fill="#ce4b63"/>
        <circle id="Oval-4" data-name="Oval" cx="1.158" cy="1.158" r="1.158" transform="translate(62.521 43.991)" fill="#ce4b63"/>
        <path id="Shape" d="M67.153,25.471H65.94c.032-.384.054-.77.054-1.158,0-5.746-3.635-10.42-8.1-10.42a6.586,6.586,0,0,0-3.061.762,3.42,3.42,0,0,1-.412.156v-.772a3.332,3.332,0,0,1,3.473-2.461h2.316a4.631,4.631,0,0,0,4.631-4.631V5.788a1.158,1.158,0,0,0-1.158-1.158H61.364a4.631,4.631,0,0,0-4.631,4.631v.1a5.694,5.694,0,0,0-2.316.915V8.1a1.158,1.158,0,1,0-2.316,0v6.707a3.419,3.419,0,0,1-.412-.156,6.626,6.626,0,0,0-2.57-.732,9.34,9.34,0,0,0-4.043-4.631A3.484,3.484,0,0,1,43.5,7.416,9.262,9.262,0,0,0,25.684,8.434a1.042,1.042,0,0,1-1.034.828,9.964,9.964,0,0,0-1.578.134,11.462,11.462,0,0,0-.208-3.866,2.027,2.027,0,0,0-.914-1.274,2.53,2.53,0,0,0-1.907-.321,22.5,22.5,0,0,0-2.53.695A15.132,15.132,0,0,0,14.366.607a2.5,2.5,0,0,0-3.275.014A15.051,15.051,0,0,0,7.958,4.639a22.356,22.356,0,0,0-2.514-.695,2.547,2.547,0,0,0-1.922.314,2.023,2.023,0,0,0-.911,1.263c-.333,1.455-.852,5.156,1.505,8.05a7.8,7.8,0,0,0,.646.705,10.843,10.843,0,0,0-1.568,2.6c-.009.022-.021.041-.029.063a11.03,11.03,0,0,0-.85,4.256c0,.247.014.519.025.786v.031a31.038,31.038,0,0,0,.375,3.455h-.4A2.316,2.316,0,0,0,0,27.787v6.947a2.316,2.316,0,0,0,2.316,2.316v2.316A2.316,2.316,0,0,0,0,41.68v6.947a2.316,2.316,0,0,0,2.316,2.316v2.316A2.316,2.316,0,0,0,0,55.574v6.947a2.316,2.316,0,0,0,2.316,2.316v2.316a2.316,2.316,0,0,0,2.316,2.316H9.262a2.316,2.316,0,0,0,2.316-2.316V64.836H30.1v2.316a2.316,2.316,0,0,0,2.316,2.316H37.05a2.316,2.316,0,0,0,2.316-2.316V64.836H59.048v2.316a2.316,2.316,0,0,0,2.316,2.316h4.631a2.316,2.316,0,0,0,2.316-2.316V64.514a2.307,2.307,0,0,0,1.158-1.994V55.574A2.307,2.307,0,0,0,68.31,53.58V50.621a2.308,2.308,0,0,0,1.158-1.994V41.68a2.307,2.307,0,0,0-1.158-1.994V36.727a2.307,2.307,0,0,0,1.158-1.994V27.787a2.316,2.316,0,0,0-2.316-2.316ZM61.364,6.946h1.158a2.316,2.316,0,0,1-2.316,2.316H59.048A2.316,2.316,0,0,1,61.364,6.946Zm-8.116,10.42h.023a5.7,5.7,0,0,0,2.627-.655,4.3,4.3,0,0,1,1.993-.5c3.192,0,5.789,3.637,5.789,8.1a11.339,11.339,0,0,1-.064,1.158H47.586a6.458,6.458,0,0,1-.116-1.158,5.094,5.094,0,0,1,.911-3.126,1.158,1.158,0,0,0-1.824-1.428,7.5,7.5,0,0,0-1.4,4.554,9.032,9.032,0,0,0,.088,1.158H42.9a11.338,11.338,0,0,1-.064-1.158c0-4.468,2.6-8.1,5.789-8.1a4.284,4.284,0,0,1,1.991.5,5.707,5.707,0,0,0,2.628.658Zm-28.6-5.789a3.384,3.384,0,0,0,3.3-2.647,6.947,6.947,0,0,1,13.36-.758,5.789,5.789,0,0,0,2.632,3.14A7,7,0,0,1,46.7,14.207c-3.539,1.113-6.177,5.216-6.177,10.106,0,.388.022.773.054,1.158H22.755a31.038,31.038,0,0,0,.374-3.455v-.031c.012-.267.025-.54.025-.786a11.03,11.03,0,0,0-.85-4.256c-.008-.022-.02-.041-.029-.063a10.876,10.876,0,0,0-1.567-2.606,7.709,7.709,0,0,0,1.641-2.308,7.456,7.456,0,0,1,2.3-.389ZM20.542,6.2a.478.478,0,0,1,.1,0,7.214,7.214,0,0,1-1.1,5.94,5.235,5.235,0,0,1-.477.521,10.266,10.266,0,0,0-1.293-.887,8,8,0,0,0,.757-3.309,7.384,7.384,0,0,0-.2-1.653A20.125,20.125,0,0,1,20.542,6.2ZM12.649,2.333a.255.255,0,0,1,.156-.019,11.939,11.939,0,0,1,3.02,4.2,5.312,5.312,0,0,1,.384,1.944,5.738,5.738,0,0,1-.57,2.391,9.927,9.927,0,0,0-5.808,0,5.738,5.738,0,0,1-.57-2.391,5.35,5.35,0,0,1,.39-1.958A11.9,11.9,0,0,1,12.649,2.333ZM4.834,6.194A.579.579,0,0,1,4.95,6.2a20.175,20.175,0,0,1,2.2.608,7.342,7.342,0,0,0-.2,1.653,8,8,0,0,0,.757,3.3,10.381,10.381,0,0,0-1.293.886,5.532,5.532,0,0,1-.489-.533A7.208,7.208,0,0,1,4.834,6.194ZM4.747,23.155H10.42a1.158,1.158,0,1,0,0-2.316H4.649a8.721,8.721,0,0,1,.4-2.316H10.42a1.158,1.158,0,1,0,0-2.316H6.2a7.873,7.873,0,0,1,13.062,0H15.051a1.158,1.158,0,1,0,0,2.316h5.368a8.721,8.721,0,0,1,.4,2.316H15.051a1.158,1.158,0,1,0,0,2.316h5.673q-.105,1.049-.317,2.316H5.064q-.21-1.265-.317-2.316ZM2.316,27.787H67.153v6.947H2.316ZM65.995,39.365H61.364V37.049h4.631Zm-26.629,0V37.049H59.048v2.316Zm-19.8,0c.367-.853.683-1.636.934-2.316h9.6v2.316Zm-7.989,0V37.049h6.439c-.278.695-.608,1.477-.983,2.316Zm20.84-2.316H37.05v2.316H32.419Zm-27.787,0H9.262v2.316H4.631ZM2.316,41.68H67.153v6.947H2.316ZM65.995,53.258H61.364V50.943h4.631Zm-26.629,0V50.943H59.048v2.316Zm-27.787,0V50.943H30.1v2.316Zm20.84-2.316H37.05v2.316H32.419Zm-27.787,0H9.262v2.316H4.631ZM2.316,55.574H67.153v6.947H2.316ZM9.262,67.152H4.631V64.836H9.262Zm27.787,0H32.419V64.836H37.05Zm24.314,0V64.836h4.631v2.316Z" transform="translate(0 -0.004)" fill="#ce4b63"/>
        <circle id="Oval-5" data-name="Oval" cx="1.158" cy="1.158" r="1.158" transform="translate(4.631 30.098)" fill="#ce4b63"/>
        <circle id="Oval-6" data-name="Oval" cx="1.158" cy="1.158" r="1.158" transform="translate(62.521 30.098)" fill="#ce4b63"/>
        <path id="Shape-2" data-name="Shape" d="M22.157,16.371a1,1,0,0,0,.142-.009,8,8,0,0,0,6.857-6.229,2.331,2.331,0,0,1,2.264-1.817,2.29,2.29,0,0,1,2.2,1.589,10.42,10.42,0,0,0,2.812,4.263,1.158,1.158,0,1,0,1.561-1.71,8.1,8.1,0,0,1-2.182-3.3,4.631,4.631,0,0,0-8.915.487,5.685,5.685,0,0,1-4.877,4.423,1.158,1.158,0,0,0,.139,2.306Z" transform="translate(3.315 0.941)" fill="#ce4b63"/>
        <path id="Shape-3" data-name="Shape" d="M34.191,15.473a3.633,3.633,0,0,0-6.993.384,3.764,3.764,0,0,1-3.189,2.895,1.158,1.158,0,0,0,.139,2.306,1,1,0,0,0,.142-.009,6.032,6.032,0,0,0,5.171-4.7,1.325,1.325,0,0,1,1.287-1.037,1.3,1.3,0,0,1,1.25.908,7.747,7.747,0,0,0,1.121,2.1,1.158,1.158,0,0,0,1.852-1.389,5.351,5.351,0,0,1-.782-1.463Z" transform="translate(3.629 2.046)" fill="#ce4b63"/>
      </g>
    </g>
  </g>
</svg>
