<svg xmlns="http://www.w3.org/2000/svg" xmlns:xlink="http://www.w3.org/1999/xlink" width="71" height="71" viewBox="0 0 71 71">
  <defs>
    <clipPath id="clip-icon-legumes">
      <rect width="71" height="71"/>
    </clipPath>
  </defs>
  <g id="icon-legumes" clip-path="url(#clip-icon-legumes)">
    <rect width="71" height="71" fill="rgba(255,255,255,0)"/>
    <g id="icon-legumes-2" data-name="icon-legumes" transform="translate(4 1)">
      <g id="Grupo_86" data-name="Grupo 86" transform="translate(0 0)">
        <g id="Grupo_85" data-name="Grupo 85" transform="translate(0 0)">
          <path id="Caminho_38" data-name="Caminho 38" d="M81.329,16.987c-4.64-4.361-11.967-3.486-14.566-3a21.664,21.664,0,0,0-7.34-6.25A31.145,31.145,0,0,0,56.787.773,1.407,1.407,0,0,0,55.519,0l-7.34.241a1.432,1.432,0,0,0-1.268,2.1A31.55,31.55,0,0,1,49.13,7.771a20.422,20.422,0,0,0-7.2,6.2c-2.649-.482-9.9-1.268-14.6,3.03q-5.476,5.039-3.537,16.569a1.4,1.4,0,0,0,.089.292c.051.165,6.592,16.607,5.5,27.483a1.445,1.445,0,0,0,0,.431,8.481,8.481,0,0,0,4.234,5.4,10.674,10.674,0,0,0,5.071,1.166,23.087,23.087,0,0,0,8.062-1.8,9.824,9.824,0,0,0,7.606,2.9c3.955,0,6.224-.8,7.986-2.751a22.59,22.59,0,0,0,7.606,1.61,10.649,10.649,0,0,0,5.071-1.192,8.481,8.481,0,0,0,4.2-5.388,1.445,1.445,0,0,0,0-.431c-1.078-10.839,5.5-27.281,5.565-27.445a1.4,1.4,0,0,0,.089-.292C86.134,25.949,84.98,20.359,81.329,16.987ZM54.607,2.9a28.079,28.079,0,0,1,2.611,15.707,1.369,1.369,0,0,0,.266,1.014,1.483,1.483,0,0,0,.887.57c1.268.241,4.627,1.268,5.654,3.182a10.56,10.56,0,0,0-2.9,4.576C58,25.417,51.5,21.614,43.869,26.57a10.536,10.536,0,0,0-2.1-2.979c2.358-2.675,7.948-3.359,10.141-3.385a1.445,1.445,0,0,0,.951-.393,1.471,1.471,0,0,0,.469-.963A34.316,34.316,0,0,0,50.4,3.03Zm27.56,30.031c-.71,1.787-6.719,17.3-5.73,28.409a5.629,5.629,0,0,1-2.751,3.283c-2.256,1.192-5.59,1.065-9.7-.342a55.083,55.083,0,0,0,2.535-5.6,1.438,1.438,0,0,0-2.662-1.09c-3.233,7.872-4.057,9-9.571,9a7.074,7.074,0,0,1-5.426-2,9.444,9.444,0,0,1-1.99-6.338,1.437,1.437,0,0,0-2.865-.228,13.449,13.449,0,0,0,1.141,6.1c-4.31,1.559-7.8,1.749-10.141.532a5.629,5.629,0,0,1-2.738-3.309c.989-11.092-5.071-26.621-5.73-28.409-1.09-6.516-.19-11.168,2.675-13.805,4.564-4.221,12.867-2.155,12.943-2.155a1.445,1.445,0,0,0,1.572-.634,18.66,18.66,0,0,1,6.085-5.7,31.309,31.309,0,0,1,.634,6.82c-2.6.216-8.177,1.078-10.978,4.462A12.525,12.525,0,0,0,33.538,20.4a1.439,1.439,0,0,0,0,2.878c7.061.165,8.2,5.667,8.24,5.895a1.432,1.432,0,0,0,2.307.875c9.229-7.315,16.569,1.268,16.873,1.673a1.432,1.432,0,0,0,2.535-.761c.963-8.874,11.232-8.2,11.663-8.164a1.438,1.438,0,1,0,.241-2.865,16.593,16.593,0,0,0-8.963,1.8c-1.509-2.358-4.475-3.486-6.25-4.044a31.033,31.033,0,0,0-.114-6.237,23.149,23.149,0,0,1,4.982,4.995,1.445,1.445,0,0,0,1.5.52c.076,0,8.354-2.079,12.943,2.142C82.356,21.753,83.256,26.406,82.166,32.934Z" transform="translate(-23.277 0)" fill="#df9f20"/>
        </g>
      </g>
      <g id="Grupo_88" data-name="Grupo 88" transform="translate(20.233 35.279)">
        <g id="Grupo_87" data-name="Grupo 87" transform="translate(0)">
          <path id="Caminho_39" data-name="Caminho 39" d="M154.323,237.9a53.557,53.557,0,0,1,0-13.59,1.439,1.439,0,1,0-2.84-.469,49.9,49.9,0,0,0,0,14.439,1.432,1.432,0,0,0,1.42,1.268h.228a1.433,1.433,0,0,0,1.193-1.637Z" transform="translate(-150.958 -222.637)" fill="#df9f20"/>
        </g>
      </g>
      <g id="Grupo_90" data-name="Grupo 90" transform="translate(41.959 35.28)">
        <g id="Grupo_89" data-name="Grupo 89" transform="translate(0)">
          <path id="Caminho_40" data-name="Caminho 40" d="M290.927,223.759a1.448,1.448,0,0,0-2.84.557h0a47.765,47.765,0,0,1,0,13.5,1.433,1.433,0,0,0,1.181,1.646l.011,0h.228a1.432,1.432,0,0,0,1.42-1.268A49.827,49.827,0,0,0,290.927,223.759Z" transform="translate(-288.068 -222.644)" fill="#df9f20"/>
        </g>
      </g>
    </g>
  </g>
</svg>
