<svg xmlns="http://www.w3.org/2000/svg" xmlns:xlink="http://www.w3.org/1999/xlink" width="71" height="71" viewBox="0 0 71 71">
  <defs>
    <clipPath id="clip-icon-oferta">
      <rect width="71" height="71"/>
    </clipPath>
  </defs>
  <g id="icon-oferta" clip-path="url(#clip-icon-oferta)">
    <rect width="71" height="71" fill="rgba(255,255,255,0)"/>
    <g id="icon-oferta-2" data-name="icon-oferta" transform="translate(1 1)">
      <path id="Caminho_34" data-name="Caminho 34" d="M178.288,144.591l9.593-28.78a2.035,2.035,0,0,0-3.861-1.287l-9.593,28.78a2.035,2.035,0,1,0,3.861,1.287Z" transform="translate(-150.671 -97.783)" fill="#59a8b2"/>
      <path id="Caminho_35" data-name="Caminho 35" d="M270.638,201.413a6.105,6.105,0,1,0-6.105-6.105A6.112,6.112,0,0,0,270.638,201.413Zm0-8.14a2.035,2.035,0,1,1-2.035,2.035A2.037,2.037,0,0,1,270.638,193.273Z" transform="translate(-228.644 -163.534)" fill="#59a8b2"/>
      <path id="Caminho_36" data-name="Caminho 36" d="M100.932,189.2a6.105,6.105,0,1,0,6.105,6.105A6.112,6.112,0,0,0,100.932,189.2Zm0,8.14a2.035,2.035,0,1,1,2.035-2.035A2.037,2.037,0,0,1,100.932,197.343Z" transform="translate(-81.962 -163.534)" fill="#59a8b2"/>
      <path id="Caminho_37" data-name="Caminho 37" d="M69.056,25.235l-7.1-9.462.277-1.938a2.035,2.035,0,0,0-.576-1.727L57.344,7.791l4.317-4.317A2.035,2.035,0,0,0,58.783.6L54.466,4.913,50.149.6A2.037,2.037,0,0,0,48.422.021L28.276,2.9a2.035,2.035,0,0,0-1.151.576L2.182,28.417a7.47,7.47,0,0,0,0,10.553L23.288,60.075a7.444,7.444,0,0,0,1.4,1.1V62a7.47,7.47,0,0,0,7.462,7.462H62A7.47,7.47,0,0,0,69.463,62V26.456a2.035,2.035,0,0,0-.407-1.221Zm-64,10.857a3.4,3.4,0,0,1,0-4.8L29.523,6.832,47.99,4.194l3.6,3.6L48.71,10.669,47.271,9.23a2.035,2.035,0,1,0-2.878,2.878l5.756,5.756a2.035,2.035,0,1,0,2.878-2.878l-1.439-1.439,2.878-2.878,3.6,3.6L55.425,32.734,30.962,57.2a3.392,3.392,0,0,1-4.8,0ZM65.393,62A3.4,3.4,0,0,1,62,65.393H32.154a3.4,3.4,0,0,1-3.382-3.141,7.433,7.433,0,0,0,5.068-2.177L58.783,35.132a2.035,2.035,0,0,0,.576-1.151l1.787-12.51,4.248,5.663Z" transform="translate(0 0)" fill="#59a8b2"/>
    </g>
  </g>
</svg>
