<svg xmlns="http://www.w3.org/2000/svg" xmlns:xlink="http://www.w3.org/1999/xlink" width="71" height="71" viewBox="0 0 71 71">
  <defs>
    <clipPath id="clip-icon-frutas">
      <rect width="71" height="71"/>
    </clipPath>
  </defs>
  <g id="icon-frutas" clip-path="url(#clip-icon-frutas)">
    <rect width="71" height="71" fill="rgba(255,255,255,0)"/>
    <g id="icon-frutas-2" data-name="icon-frutas" transform="translate(1 3)">
      <g id="Grupo_100" data-name="Grupo 100" transform="translate(0 0)">
        <g id="Grupo_99" data-name="Grupo 99" transform="translate(0 0)">
          <path id="Caminho_45" data-name="Caminho 45" d="M69.04,45.86a1.356,1.356,0,0,0-.458-.792,8.553,8.553,0,0,1-2.931-5.68l-.04-.219a1.357,1.357,0,0,0-1.145-1.1,4.531,4.531,0,0,0-.628-.042,6.234,6.234,0,0,0-4.264,1.759,1.358,1.358,0,0,0-.361.755c-.1.729-.147,1.4-.191,1.985-.166,2.218-.313,2.454-.989,2.667a1.357,1.357,0,0,0-.886.891,31.343,31.343,0,0,1-2.5,5.859c-.5-.964-1.063-1.831-1.582-2.637-1.27-1.973-2.273-3.531-1.93-5.463,1.111-6.26.547-10.976-1.676-14.017a8.924,8.924,0,0,0-5.144-3.387,5.979,5.979,0,0,1,4.02-5.18,1.357,1.357,0,0,0-.7-2.621A8.686,8.686,0,0,0,41.622,26.1a9,9,0,0,0-5.75,1.948c-2.957,2.363-4.744,6.753-5.31,13.049-.171,1.895-1.4,3-3.093,4.53a19.654,19.654,0,0,0-4.163,4.75A16.805,16.805,0,0,0,18.391,49.2a5.951,5.951,0,0,1,3.992-4.991,1.357,1.357,0,1,0-.7-2.621,7.243,7.243,0,0,0-2.039.921,8.022,8.022,0,0,0-9.934-6.16,1.357,1.357,0,0,0-.961.961,8.051,8.051,0,0,0,2.077,7.748,7.963,7.963,0,0,0,5.206,2.335,10.167,10.167,0,0,0-.373,1.792,16.938,16.938,0,0,0,1.28,33.827,16.777,16.777,0,0,0,9.608-2.989c.446.2.893.384,1.342.561A33.376,33.376,0,0,0,40.152,83.01a27.316,27.316,0,0,0,17.506-6.163c5.153-4.214,8.951-10.45,10.983-18.033A35.222,35.222,0,0,0,69.04,45.86ZM29.286,47.643C31.111,46,33,44.3,33.264,41.342c.5-5.531,1.945-9.29,4.3-11.173a6.534,6.534,0,0,1,5.14-1.28,6.44,6.44,0,0,1,4.559,2.539c1.769,2.42,2.171,6.438,1.195,11.941-.529,2.979.92,5.23,2.32,7.406a20.785,20.785,0,0,1,2.143,3.941A32.542,32.542,0,0,1,33.777,67.9,16.936,16.936,0,0,0,25.735,51.6,17.62,17.62,0,0,1,29.286,47.643ZM12.743,43.137a5.331,5.331,0,0,1-1.524-4.319,5.377,5.377,0,0,1,.565-.03,5.273,5.273,0,0,1,3.753,1.554,5.33,5.33,0,0,1,1.524,4.319,5.373,5.373,0,0,1-.565.03h0A5.272,5.272,0,0,1,12.743,43.137ZM16.937,80.3A14.211,14.211,0,1,1,30.972,68.4q-1.309.169-2.634.214c-.009-.045-2.044.037-2.788-.042a29.828,29.828,0,0,1-5.8-.959,1.357,1.357,0,0,0-1.137.2,7.783,7.783,0,0,0-3.142,4,1.357,1.357,0,0,0,.408,1.486,45.85,45.85,0,0,0,7.778,5.309A14.1,14.1,0,0,1,16.937,80.3ZM66.021,58.112C62.3,72,52.628,80.3,40.153,80.3c-7.283,0-14.971-2.986-21.747-8.428a4.831,4.831,0,0,1,1.28-1.467,32.208,32.208,0,0,0,7.711.947,32.759,32.759,0,0,0,20.3-7.176,36.144,36.144,0,0,0,7.814-8.451c.025-.034.049-.069.071-.106A34.614,34.614,0,0,0,59.541,47.5c1.9-.957,2.046-2.895,2.187-4.775.032-.43.065-.87.115-1.335a3.674,3.674,0,0,1,1.319-.575A10.633,10.633,0,0,0,66.448,46.8,32.819,32.819,0,0,1,66.021,58.112Z" transform="translate(0 -18.592)" fill="#ccc729"/>
        </g>
      </g>
      <g id="Grupo_102" data-name="Grupo 102" transform="translate(41.872 12.983)">
        <g id="Grupo_101" data-name="Grupo 101" transform="translate(0 0)">
          <path id="Caminho_46" data-name="Caminho 46" d="M310.514,114.4a1.357,1.357,0,0,0-1.049,2.5c.987.414,1.532,3.392.664,8.283a1.357,1.357,0,1,0,2.672.474C313.577,121.282,313.81,115.778,310.514,114.4Z" transform="translate(-308.632 -114.29)" fill="#ccc729"/>
        </g>
      </g>
      <g id="Grupo_106" data-name="Grupo 106" transform="translate(37.757 53.376)">
        <g id="Grupo_105" data-name="Grupo 105" transform="translate(0 0)">
          <path id="Caminho_48" data-name="Caminho 48" d="M290.151,412.754a1.357,1.357,0,0,0-1.826-.59,19.586,19.586,0,0,1-8.619,2.279,1.357,1.357,0,0,0-.1,2.712c.021,0,.094,0,.215,0a22.424,22.424,0,0,0,9.742-2.578A1.357,1.357,0,0,0,290.151,412.754Z" transform="translate(-278.3 -412.015)" fill="#ccc729"/>
        </g>
      </g>
    </g>
  </g>
</svg>
