<svg xmlns="http://www.w3.org/2000/svg" xmlns:xlink="http://www.w3.org/1999/xlink" width="71" height="71" viewBox="0 0 71 71">
  <defs>
    <clipPath id="clip-icon-verduras">
      <rect width="71" height="71"/>
    </clipPath>
  </defs>
  <g id="icon-verduras" clip-path="url(#clip-icon-verduras)">
    <rect width="71" height="71" fill="rgba(255,255,255,0)"/>
    <path id="icon-verduras-2" data-name="icon-verduras" d="M4.028,35.824a9.7,9.7,0,0,0-.547,6.434A10.138,10.138,0,0,0,9.9,49.173a59.383,59.383,0,0,0,7.545,11.983A22.091,22.091,0,0,0,34.907,69.46,10.806,10.806,0,0,0,43.4,65.289a11.265,11.265,0,0,0,1.894-9.544,10.678,10.678,0,0,1-.392-2.9,9.7,9.7,0,0,1,11.605-9.4l6.444,1.289a2.034,2.034,0,0,0,2.384-1.546,8.413,8.413,0,0,0-1.274-7.307,8.312,8.312,0,0,0-.76-.9,12.158,12.158,0,0,0-2.007-22.055q.022-.357.023-.71A12.223,12.223,0,0,0,49.108.007,12.4,12.4,0,0,0,39.1,5.087l-.076-.036a12.18,12.18,0,0,0-21.273,2.83,9.951,9.951,0,0,0-10.6,4.925,10.207,10.207,0,0,0-1.246,5.845A10.221,10.221,0,0,0,.342,30.465a10,10,0,0,0,3.686,5.358ZM40.244,9.9A2.035,2.035,0,0,0,41.624,8.78a8.272,8.272,0,0,1,7.484-4.7,8.085,8.085,0,0,1,7.93,9.911,2.035,2.035,0,0,0,1.632,2.446,8.1,8.1,0,0,1-.915,16.07,2.035,2.035,0,0,0-.043,4.058,4.242,4.242,0,0,1,3.067,1.722,3.791,3.791,0,0,1,.787,2.021l-4.259-.852A13.77,13.77,0,0,0,40.833,52.846a14.594,14.594,0,0,0,.524,3.924,7.214,7.214,0,0,1-1.176,6.03,6.592,6.592,0,0,1-1.161,1.164s-5.007-20.3-5.069-20.6l5.756-2.878a2.035,2.035,0,0,0-1.82-3.64l-4.415,2.207a23.071,23.071,0,0,1,.679-5.97A15.464,15.464,0,0,1,42.6,22.814l7.348,5.3a2.035,2.035,0,0,0,2.379-3.3l-4.853-3.5L51.626,20.3a2.035,2.035,0,0,0-.967-3.954l-6.222,1.522A19.527,19.527,0,0,0,33.4,25.277l-.759-3.338a2.035,2.035,0,1,0-3.968.9l1.849,8.131c-.117.371-.225.746-.32,1.126a27.242,27.242,0,0,0,0,13.134l4.833,19.573A40.212,40.212,0,0,1,24.745,41.52a2.035,2.035,0,0,0-1.051-1.59A6.092,6.092,0,0,1,20.485,34.6,6.01,6.01,0,0,1,22.6,30.025a2.035,2.035,0,0,0,0-3.064,6.01,6.01,0,0,1-2.112-4.572,6.111,6.111,0,0,1,6.1-6.1,2.035,2.035,0,0,0,2.035-2.035,6.111,6.111,0,0,1,6.1-6.1,6.02,6.02,0,0,1,3.783,1.359,2.036,2.036,0,0,0,1.732.392ZM8.724,21.936a2.035,2.035,0,0,0,1.439-2.492,6.225,6.225,0,0,1,.548-4.661,5.821,5.821,0,0,1,3.612-2.815,6.018,6.018,0,0,1,4.006.334A2.035,2.035,0,0,0,21.148,10.8,8.119,8.119,0,0,1,31.79,4.512a10.206,10.206,0,0,0-7.064,7.875,10.133,10.133,0,0,0-6.239,16.107A10.066,10.066,0,0,0,20.8,42.923a44.753,44.753,0,0,0,8.8,21.734,17.989,17.989,0,0,1-8.985-6.044,52.063,52.063,0,0,1-7.3-11.824,2.036,2.036,0,0,0-1.427-1.263,6.092,6.092,0,0,1-4.479-4.32,6.184,6.184,0,0,1,1.013-4.963,2.036,2.036,0,0,0-.793-2.96,6.212,6.212,0,0,1-3.358-3.87,6.184,6.184,0,0,1,4.452-7.476Zm0,0" transform="translate(1 1.001)" fill="#00a450"/>
  </g>
</svg>
