<svg xmlns="http://www.w3.org/2000/svg" xmlns:xlink="http://www.w3.org/1999/xlink" width="71" height="71" viewBox="0 0 71 71">
  <defs>
    <clipPath id="clip-icon-diversos">
      <rect width="71" height="71"/>
    </clipPath>
  </defs>
  <g id="icon-diversos" clip-path="url(#clip-icon-diversos)">
    <rect width="71" height="71" fill="rgba(255,255,255,0)"/>
    <g id="icon-diversos-2" data-name="icon-diversos" transform="translate(1 4)">
      <g id="Grupo_94" data-name="Grupo 94" transform="translate(5.426 9.948)">
        <g id="Grupo_93" data-name="Grupo 93">
          <path id="Caminho_42" data-name="Caminho 42" d="M46.788,100.789a1.357,1.357,0,0,0-1.916-.094,14.87,14.87,0,0,0-4.875,11,12.732,12.732,0,0,0,3.274,8.531,1.357,1.357,0,1,0,2.016-1.815,10.023,10.023,0,0,1-2.578-6.716,12.152,12.152,0,0,1,3.984-8.988A1.357,1.357,0,0,0,46.788,100.789Z" transform="translate(-39.997 -100.344)" fill="#ab803b"/>
        </g>
      </g>
      <g id="Grupo_98" data-name="Grupo 98" transform="translate(0 0)">
        <g id="Grupo_97" data-name="Grupo 97">
          <path id="Caminho_44" data-name="Caminho 44" d="M66.818,57.025a1.357,1.357,0,1,0-2.171,1.627,10.591,10.591,0,0,1,2.1,6.312,9.24,9.24,0,0,1-2.377,6.192l-.078.086a4.715,4.715,0,0,1-3.367,1.57c-.057,0-.113,0-.167,0a.107.107,0,0,1-.086-.04.2.2,0,0,1-.048-.155c.016-.182.024-.368.024-.552a7,7,0,0,0-2.3-5.179A8.116,8.116,0,0,0,55.3,65.145a1.357,1.357,0,0,0-1.761,1.295v3.794a25.072,25.072,0,0,0,.949,6.832,22.356,22.356,0,0,1,.846,6.093,3.284,3.284,0,0,1-3.28,3.28H50.777a3.284,3.284,0,0,1-3.28-3.28,22.354,22.354,0,0,1,.833-6.045,25.021,25.021,0,0,0,.962-6.755V66.44a1.357,1.357,0,0,0-1.761-1.295,8.113,8.113,0,0,0-3.053,1.744,7,7,0,0,0-2.3,5.179c0,.175.007.352.022.526a.231.231,0,0,1-.056.177.116.116,0,0,1-.085.045h-.045a4.643,4.643,0,0,1-3.446-1.534l-.111-.124a9.24,9.24,0,0,1-2.376-6.192,10.457,10.457,0,0,1,3.083-7.443l.439-.439a11.335,11.335,0,0,1,8.068-3.342h6.864c.305,0,.614.011.918.033a1.357,1.357,0,1,0,.193-2.706c-.368-.026-.742-.04-1.111-.04H47.675a14.03,14.03,0,0,0-9.987,4.137l-.439.439a13.294,13.294,0,0,0-2.268,3.024A20.028,20.028,0,0,0,17.3,60.271l-.123.076A8.143,8.143,0,0,1,6.86,58.86l-.176-.2A15.441,15.441,0,0,1,2.713,48.318,17.588,17.588,0,0,1,8.479,35.309a21.485,21.485,0,0,1,14.455-5.576h9.75a21.485,21.485,0,0,1,14.455,5.576,17.492,17.492,0,0,1,5.71,11.6,1.357,1.357,0,0,0,2.7-.217,20.2,20.2,0,0,0-6.592-13.4A24.192,24.192,0,0,0,32.685,27.02h-9.75A24.193,24.193,0,0,0,6.657,33.3,20.306,20.306,0,0,0,0,48.317,18.149,18.149,0,0,0,4.668,60.479l.176.2A10.856,10.856,0,0,0,18.6,62.657l.123-.076c.276-.17.558-.33.842-.483v2.119a17.571,17.571,0,0,1-1.651,7.411,20.3,20.3,0,0,0-1.908,8.562,8.972,8.972,0,0,0,8.962,8.962h5.713a8.972,8.972,0,0,0,8.962-8.962,20.258,20.258,0,0,0-.728-5.353,7.349,7.349,0,0,0,3.1.69h.055a2.817,2.817,0,0,0,2.078-.928,2.954,2.954,0,0,0,.756-2.231c-.008-.1-.012-.2-.012-.3A4.283,4.283,0,0,1,46.3,68.9q.136-.123.279-.236v1.7a22.312,22.312,0,0,1-.861,6.022,25.068,25.068,0,0,0-.934,6.778,6,6,0,0,0,5.993,5.993h1.281a6,6,0,0,0,5.993-5.993,25.075,25.075,0,0,0-.949-6.832,22.354,22.354,0,0,1-.846-6.093V68.663q.143.113.279.236a4.284,4.284,0,0,1,1.4,3.168c0,.106,0,.212-.014.316a2.925,2.925,0,0,0,.74,2.212,2.8,2.8,0,0,0,2.065.932c.088,0,.175,0,.264,0a7.439,7.439,0,0,0,5.319-2.468l.078-.086a11.951,11.951,0,0,0,3.073-8.007A13.322,13.322,0,0,0,66.818,57.025ZM30.683,86.439H24.969a6.255,6.255,0,0,1-6.248-6.248,17.57,17.57,0,0,1,1.651-7.411,20.3,20.3,0,0,0,1.908-8.562v-3.3a17.287,17.287,0,0,1,11.653.213,13.286,13.286,0,0,0-.561,3.834,11.98,11.98,0,0,0,.273,2.531A20.276,20.276,0,0,0,35.28,72.78a17.572,17.572,0,0,1,1.651,7.411A6.255,6.255,0,0,1,30.683,86.439Z" transform="translate(0 -27.02)" fill="#ab803b"/>
        </g>
      </g>
    </g>
  </g>
</svg>
