<svg xmlns="http://www.w3.org/2000/svg" width="219.998" height="69.928" viewBox="0 0 219.998 69.928">
  <g id="logo-feirinha-svg" transform="translate(-5993.55 -408.137)">
    <g id="Grupo_138" data-name="Grupo 138" transform="translate(6043.215 431.833)">
      <path id="Caminho_57" data-name="Caminho 57" d="M6170.145,479.738h-5.678V503.8a1.979,1.979,0,0,1-1.979,1.979h0a1.979,1.979,0,0,1-1.979-1.979V475.519a9.247,9.247,0,0,1,2.917-7.318,10.9,10.9,0,0,1,7.5-2.578h0a1.042,1.042,0,0,1,1.042,1.042v1.458a1.042,1.042,0,0,1-1.042,1.042h-.007q-3.148.157-4.458,1.47a6.172,6.172,0,0,0-1.994,4.2v1.26h5.678a1.823,1.823,0,0,1,1.823,1.823h0A1.823,1.823,0,0,1,6170.145,479.738Z" transform="translate(-6160.509 -465.622)" fill="#292929"/>
      <path id="Caminho_58" data-name="Caminho 58" d="M6231.347,518.672h-26.216a11,11,0,0,0,3.8,7.4,11.345,11.345,0,0,0,7.865,2.865,10.416,10.416,0,0,0,9.549-5.534,1.941,1.941,0,0,1,1.69-.977h0a1.952,1.952,0,0,1,1.7,2.916,14.893,14.893,0,0,1-4.294,4.689,15.143,15.143,0,0,1-8.8,2.865,14.64,14.64,0,0,1-10.783-4.454,15.5,15.5,0,0,1-.078-22.345,14.575,14.575,0,0,1,11.486-4.454,15.251,15.251,0,0,1,10.313,4.9,14.251,14.251,0,0,1,4.219,10v1.684A.452.452,0,0,1,6231.347,518.672Zm-3.455-3.646a11.45,11.45,0,0,0-3.906-6.746,11.6,11.6,0,0,0-18.854,6.746Z" transform="translate(-6190.234 -492.003)" fill="#292929"/>
      <path id="Caminho_59" data-name="Caminho 59" d="M6333.36,472.55h0a1.979,1.979,0,0,1-1.979-1.979V467.6a1.979,1.979,0,0,1,1.979-1.979h0a1.979,1.979,0,0,1,1.979,1.979v2.969A1.979,1.979,0,0,1,6333.36,472.55Zm0,33.232h0a1.979,1.979,0,0,1-1.979-1.979V478.071a1.979,1.979,0,0,1,1.979-1.979h0a1.979,1.979,0,0,1,1.979,1.979V503.8A1.979,1.979,0,0,1,6333.36,505.782Z" transform="translate(-6285.752 -465.622)" fill="#292929"/>
      <path id="Caminho_60" data-name="Caminho 60" d="M6375.153,506.042c0,.473-.178.67-.411.688a7.1,7.1,0,0,0-4.068,1.487,10.542,10.542,0,0,0-2.345,2.448,9.159,9.159,0,0,0-.989,4.584v15.678a2.084,2.084,0,0,1-2.084,2.084h0a2.084,2.084,0,0,1-2.083-2.084V505.17a1.849,1.849,0,0,1,1.85-1.849h0a1.849,1.849,0,0,1,1.85,1.849v2.37a8.639,8.639,0,0,1,3.7-3.7,9.026,9.026,0,0,1,3.436-1.066,1.052,1.052,0,0,1,1.148,1.069Z" transform="translate(-6309.055 -492.851)" fill="#292929"/>
      <path id="Caminho_61" data-name="Caminho 61" d="M6423.476,472.55h0a1.98,1.98,0,0,1-1.98-1.979V467.6a1.98,1.98,0,0,1,1.98-1.979h0a1.98,1.98,0,0,1,1.979,1.979v2.969A1.979,1.979,0,0,1,6423.476,472.55Zm0,33.232h0a1.98,1.98,0,0,1-1.98-1.979V478.071a1.98,1.98,0,0,1,1.98-1.979h0a1.979,1.979,0,0,1,1.979,1.979V503.8A1.98,1.98,0,0,1,6423.476,505.782Z" transform="translate(-6351.804 -465.622)" fill="#292929"/>
      <path id="Caminho_62" data-name="Caminho 62" d="M6478.394,532.661h0a1.98,1.98,0,0,1-1.979-1.979V515.316a8.755,8.755,0,0,0-2.75-6.459,9.018,9.018,0,0,0-12.887,0,8.755,8.755,0,0,0-2.75,6.459v15.366a1.979,1.979,0,0,1-1.979,1.979h0a1.979,1.979,0,0,1-1.979-1.979V515.733a13.178,13.178,0,0,1,3.75-9.61,13.459,13.459,0,0,1,18.8,0,13.174,13.174,0,0,1,3.75,9.61v14.949A1.98,1.98,0,0,1,6478.394,532.661Z" transform="translate(-6375.68 -492.501)" fill="#292929"/>
      <path id="Caminho_63" data-name="Caminho 63" d="M6594.156,505.782h0a1.979,1.979,0,0,1-1.979-1.979V488.488a8.783,8.783,0,0,0-2.784-6.485,8.636,8.636,0,0,0-6.515-2.631,9.109,9.109,0,0,0-6.384,2.526,8.292,8.292,0,0,0-2.6,6.277V503.8a1.98,1.98,0,0,1-1.979,1.979h0a1.979,1.979,0,0,1-1.979-1.979V467.6a1.979,1.979,0,0,1,1.979-1.979h0a1.98,1.98,0,0,1,1.979,1.979v12.71a11.262,11.262,0,0,1,8.719-4.688,12.272,12.272,0,0,1,9.528,3.646,12.947,12.947,0,0,1,3.994,9.636v14.9A1.98,1.98,0,0,1,6594.156,505.782Z" transform="translate(-6460.606 -465.622)" fill="#292929"/>
      <path id="Caminho_64" data-name="Caminho 64" d="M6714.586,517.583V530.5a1.979,1.979,0,0,1-1.98,1.979h0a1.978,1.978,0,0,1-1.978-1.979v-2.656a14.825,14.825,0,0,1-20.98,1.789,16.024,16.024,0,0,1-5.482-13.894,15.225,15.225,0,0,1,4.533-9.277,14.231,14.231,0,0,1,11.095-4.4,14.909,14.909,0,0,1,10.625,4.766A14.276,14.276,0,0,1,6714.586,517.583Zm-3.958-.287a11.529,11.529,0,0,0-3.343-8.039,10.446,10.446,0,0,0-7.778-3.341,11.022,11.022,0,0,0-8.092,3.341,11.2,11.2,0,0,0-3.395,8.092,11.422,11.422,0,0,0,3.107,8.222,10.829,10.829,0,0,0,7.753,3.732,10.513,10.513,0,0,0,8.379-3.419A11.633,11.633,0,0,0,6710.628,517.3Z" transform="translate(-6544.263 -492.321)" fill="#292929"/>
    </g>
    <g id="Grupo_140" data-name="Grupo 140" transform="translate(5993.55 408.137)">
      <path id="Caminho_65" data-name="Caminho 65" d="M6059.173,434.366a2.276,2.276,0,0,1-2.275-2.275c0-7.581,4.643-12.911,9.131-13.685a2.275,2.275,0,0,1,.774,4.484c-2.245.387-5.354,3.8-5.354,9.2A2.275,2.275,0,0,1,6059.173,434.366Z" transform="translate(-6038.416 -417.348)" fill="#a16b4e"/>
      <path id="Caminho_66" data-name="Caminho 66" d="M6059.7,447.231a14.364,14.364,0,0,0-2.215.171,17.188,17.188,0,0,0-.592,4.524,2.275,2.275,0,0,0,4.551,0,12.4,12.4,0,0,1,.8-4.47A14.359,14.359,0,0,0,6059.7,447.231Z" transform="translate(-6038.416 -437.184)" opacity="0.1" style="isolation: isolate"/>
      <path id="Caminho_67" data-name="Caminho 67" d="M6006.157,468.818c0-.057,0-.114,0-.17a14.3,14.3,0,1,1,28.6-.013c0,.127,0,.254,0,.38a20.56,20.56,0,0,0,3.036,11.186,20.166,20.166,0,0,1,2.934,10.461,20.567,20.567,0,0,1-19.689,20.3,20.268,20.268,0,0,1-17.972-30.651A21.8,21.8,0,0,0,6006.157,468.818Z" transform="translate(-5999.44 -442.067)" fill="#b0c862"/>
      <path id="Caminho_68" data-name="Caminho 68" d="M6003.056,480.721a21.769,21.769,0,0,0,3.1-11.493v-.17a14.311,14.311,0,0,1,11.994-14.126,13.737,13.737,0,0,0-6.994,11.98v.164a20.926,20.926,0,0,1-2.979,11.045,19.479,19.479,0,0,0,17.271,29.457,19.093,19.093,0,0,0,10.438-3.506,20.206,20.206,0,0,1-32.829-23.351Z" transform="translate(-5999.438 -442.477)" opacity="0.1" style="isolation: isolate"/>
      <g id="Grupo_139" data-name="Grupo 139" transform="translate(8.071 44.544)" opacity="0.3">
        <ellipse id="Elipse_161" data-name="Elipse 161" cx="3.962" cy="1.719" rx="3.962" ry="1.719" fill="#f15b70"/>
        <ellipse id="Elipse_162" data-name="Elipse 162" cx="3.962" cy="1.719" rx="3.962" ry="1.719" transform="translate(18.51)" fill="#f15b70"/>
      </g>
      <path id="Caminho_69" data-name="Caminho 69" d="M6092.2,543.666V545.2a1.024,1.024,0,0,0,2.049,0v-1.536a1.024,1.024,0,1,0-2.049,0Z" transform="translate(-6062.683 -502.763)" fill="#292929"/>
      <path id="Caminho_70" data-name="Caminho 70" d="M6033,543.666V545.2a1.024,1.024,0,1,0,2.048,0v-1.536a1.024,1.024,0,1,0-2.048,0Z" transform="translate(-6021.988 -502.763)" fill="#292929"/>
      <path id="Caminho_71" data-name="Caminho 71" d="M6059.929,548.124a2.211,2.211,0,0,1-3.337,0,1.024,1.024,0,1,0-1.545,1.346,4.257,4.257,0,0,0,6.424,0,1.023,1.023,0,1,0-1.542-1.346Z" transform="translate(-6036.97 -506.291)" fill="#292929"/>
      <path id="Caminho_72" data-name="Caminho 72" d="M6037.352,452.814a20.8,20.8,0,0,1-2.954-10.955c0-.061,0-.122,0-.181a15.407,15.407,0,0,0-.286-2.977,1.031,1.031,0,0,0-.061-.2,31.891,31.891,0,0,0-1.479-4.092h0a15.324,15.324,0,0,0-10.312-7.734c.865-3.093,2.869-4.818,4.085-5.028a3.3,3.3,0,1,0-1.121-6.5,10.852,10.852,0,0,0-6.324,3.952,16.057,16.057,0,0,0-3.4,7.667,15.349,15.349,0,0,0-11.747,14.9c0,.136,0,.272.007.407a19.494,19.494,0,0,1-2.889,10.627,21.256,21.256,0,0,0-3.083,10.99,20.91,20.91,0,0,0,4.045,12.348c.15.643,3.243,3.585,3.243,3.585a21.144,21.144,0,0,0,13.4,5.395q.3.008.609.008a21.293,21.293,0,0,0,18.27-32.21ZM6020.478,420.4a8.823,8.823,0,0,1,5.1-3.241,1.249,1.249,0,0,1,1.443,1.02,1.252,1.252,0,0,1-1.02,1.445,6.442,6.442,0,0,0-3.633,2.4,11.3,11.3,0,0,0-2.146,4.356c-.38-.028-.762-.044-1.146-.044-.481,0-.956.023-1.425.067A13.844,13.844,0,0,1,6020.478,420.4Zm12.012,57.123a19.007,19.007,0,0,1-25.815.767.914.914,0,0,0-.238-.206,1.017,1.017,0,0,0-.192-.134,17.6,17.6,0,0,1-2.751-3.119,18.865,18.865,0,0,1-3.655-11.143,19.2,19.2,0,0,1,2.784-9.931,21.531,21.531,0,0,0,3.185-11.745c0-.117,0-.235,0-.353a13.274,13.274,0,0,1,24.968-6.282.071.071,0,0,1,.008.012,11.352,11.352,0,0,1,1.324,3.7h0a13.333,13.333,0,0,1,.249,2.581c0,.053,0,.105,0,.157a22.833,22.833,0,0,0,3.245,12.032,19.247,19.247,0,0,1-3.105,23.662Z" transform="translate(-5997.787 -415.095)" fill="#292929"/>
    </g>
  </g>
</svg>
