<svg xmlns="http://www.w3.org/2000/svg" width="150.025" height="47.687" viewBox="0 0 150.025 47.687"><g transform="translate(-5993.55 -408.137)"><g transform="translate(6027.418 424.296)"><path d="M6167.08,475.248h-3.872v16.411a1.35,1.35,0,0,1-1.35,1.35h0a1.35,1.35,0,0,1-1.35-1.35V472.371a6.308,6.308,0,0,1,1.989-4.991,7.437,7.437,0,0,1,5.115-1.758h0a.71.71,0,0,1,.71.711v.994a.71.71,0,0,1-.71.711h0a4.543,4.543,0,0,0-3.04,1,4.209,4.209,0,0,0-1.359,2.863v.859h3.872a1.243,1.243,0,0,1,1.243,1.243h0A1.243,1.243,0,0,1,6167.08,475.248Z" transform="translate(-6160.508 -465.622)" fill="#292929"/><path d="M6221.715,513.246h-17.878a7.5,7.5,0,0,0,2.592,5.044,7.736,7.736,0,0,0,5.364,1.953,7.1,7.1,0,0,0,6.511-3.774,1.323,1.323,0,0,1,1.153-.666h0a1.331,1.331,0,0,1,1.161,1.989,10.149,10.149,0,0,1-2.928,3.2,10.327,10.327,0,0,1-6,1.954,9.984,9.984,0,0,1-7.353-3.037,10.57,10.57,0,0,1-.053-15.238,9.939,9.939,0,0,1,7.833-3.037,10.4,10.4,0,0,1,7.033,3.339,9.718,9.718,0,0,1,2.877,6.82v1.148A.308.308,0,0,1,6221.715,513.246Zm-2.356-2.486a7.809,7.809,0,0,0-2.664-4.6,7.909,7.909,0,0,0-12.858,4.6Z" transform="translate(-6193.678 -495.059)" fill="#292929"/><path d="M6332.73,470.346h0a1.35,1.35,0,0,1-1.35-1.35v-2.025a1.35,1.35,0,0,1,1.35-1.35h0a1.35,1.35,0,0,1,1.35,1.35V469A1.35,1.35,0,0,1,6332.73,470.346Zm0,22.662h0a1.35,1.35,0,0,1-1.35-1.35V474.112a1.35,1.35,0,0,1,1.35-1.35h0a1.35,1.35,0,0,1,1.35,1.35v17.547A1.35,1.35,0,0,1,6332.73,493.008Z" transform="translate(-6300.264 -465.622)" fill="#292929"/><path d="M6371.343,505c0,.323-.121.457-.28.469a4.841,4.841,0,0,0-2.774,1.014,7.181,7.181,0,0,0-1.6,1.669,6.246,6.246,0,0,0-.675,3.126v10.692a1.421,1.421,0,0,1-1.421,1.421h0a1.421,1.421,0,0,1-1.421-1.421V504.407a1.261,1.261,0,0,1,1.262-1.261h0a1.261,1.261,0,0,1,1.261,1.261v1.616a5.894,5.894,0,0,1,2.521-2.522,6.16,6.16,0,0,1,2.343-.727.717.717,0,0,1,.783.729Z" transform="translate(-6326.268 -496.006)" fill="#292929"/><path d="M6422.845,470.346h0a1.35,1.35,0,0,1-1.35-1.35v-2.025a1.35,1.35,0,0,1,1.35-1.35h0a1.35,1.35,0,0,1,1.35,1.35V469A1.35,1.35,0,0,1,6422.845,470.346Zm0,22.662h0a1.35,1.35,0,0,1-1.35-1.35V474.112a1.35,1.35,0,0,1,1.35-1.35h0a1.35,1.35,0,0,1,1.35,1.35v17.547A1.35,1.35,0,0,1,6422.845,493.008Z" transform="translate(-6373.97 -465.622)" fill="#292929"/><path d="M6470.657,523h0a1.35,1.35,0,0,1-1.35-1.35V511.174a5.97,5.97,0,0,0-1.875-4.4,6.15,6.15,0,0,0-8.788,0,5.97,5.97,0,0,0-1.875,4.4v10.479a1.35,1.35,0,0,1-1.35,1.35h0a1.35,1.35,0,0,1-1.35-1.35V511.458a8.986,8.986,0,0,1,2.558-6.554,9.178,9.178,0,0,1,12.823,0,8.984,8.984,0,0,1,2.558,6.554v10.194A1.35,1.35,0,0,1,6470.657,523Z" transform="translate(-6400.612 -495.616)" fill="#292929"/><path d="M6586.453,493.008h0a1.35,1.35,0,0,1-1.35-1.35V481.216a5.991,5.991,0,0,0-1.9-4.422,5.89,5.89,0,0,0-4.442-1.794,6.212,6.212,0,0,0-4.354,1.723,5.655,5.655,0,0,0-1.773,4.28v10.656a1.35,1.35,0,0,1-1.35,1.35h0a1.35,1.35,0,0,1-1.35-1.35V466.972a1.35,1.35,0,0,1,1.35-1.35h0a1.35,1.35,0,0,1,1.35,1.35v8.667a7.68,7.68,0,0,1,5.946-3.2,8.369,8.369,0,0,1,6.5,2.486,8.829,8.829,0,0,1,2.724,6.571v10.159A1.35,1.35,0,0,1,6586.453,493.008Z" transform="translate(-6495.379 -465.622)" fill="#292929"/><path d="M6704.88,512.642v8.809a1.35,1.35,0,0,1-1.351,1.35h0a1.35,1.35,0,0,1-1.349-1.35V519.64a10.109,10.109,0,0,1-14.307,1.22,10.928,10.928,0,0,1-3.739-9.475,10.383,10.383,0,0,1,3.092-6.326,9.7,9.7,0,0,1,7.565-3,10.168,10.168,0,0,1,7.246,3.25A9.737,9.737,0,0,1,6704.88,512.642Zm-2.7-.2a7.863,7.863,0,0,0-2.279-5.482,7.123,7.123,0,0,0-5.3-2.278,7.517,7.517,0,0,0-5.519,2.278,7.639,7.639,0,0,0-2.314,5.518,7.79,7.79,0,0,0,2.119,5.607,7.386,7.386,0,0,0,5.287,2.545,7.168,7.168,0,0,0,5.714-2.332A7.931,7.931,0,0,0,6702.181,512.446Z" transform="translate(-6588.729 -495.415)" fill="#292929"/></g><g transform="translate(5993.55 408.137)"><path d="M6058.449,429.279a1.552,1.552,0,0,1-1.552-1.552c0-5.17,3.166-8.8,6.227-9.332a1.551,1.551,0,0,1,.528,3.058c-1.531.264-3.651,2.591-3.651,6.274A1.551,1.551,0,0,1,6058.449,429.279Z" transform="translate(-6044.294 -417.674)" fill="#a16b4e"/><path d="M6058.812,447.231a9.8,9.8,0,0,0-1.511.117,11.746,11.746,0,0,0-.4,3.085,1.552,1.552,0,0,0,3.1,0,8.465,8.465,0,0,1,.544-3.048A9.794,9.794,0,0,0,6058.812,447.231Z" transform="translate(-6044.294 -440.379)" opacity="0.1" style="isolation:isolate"/><path d="M6004.259,464.212c0-.039,0-.077,0-.116a9.751,9.751,0,1,1,19.5-.009c0,.087,0,.173,0,.259a14.027,14.027,0,0,0,2.07,7.628,13.746,13.746,0,0,1,2,7.134,14.025,14.025,0,0,1-13.427,13.844,13.821,13.821,0,0,1-12.255-20.9A14.863,14.863,0,0,0,6004.259,464.212Z" transform="translate(-5999.679 -445.969)" fill="#b0c862"/><path d="M6002.145,472.519a14.849,14.849,0,0,0,2.113-7.838v-.116a9.758,9.758,0,0,1,8.179-9.633,9.369,9.369,0,0,0-4.77,8.17v.112a14.268,14.268,0,0,1-2.031,7.532,13.284,13.284,0,0,0,11.778,20.088,13.022,13.022,0,0,0,7.118-2.391,13.78,13.78,0,0,1-22.388-15.924Z" transform="translate(-5999.677 -446.438)" opacity="0.1" style="isolation:isolate"/><g transform="translate(5.504 30.376)" opacity="0.3"><ellipse cx="2.702" cy="1.172" rx="2.702" ry="1.172" fill="#f15b70"/><ellipse cx="2.702" cy="1.172" rx="2.702" ry="1.172" transform="translate(12.623)" fill="#f15b70"/></g><path d="M6092.2,543.34v1.048a.7.7,0,1,0,1.4,0V543.34a.7.7,0,1,0-1.4,0Z" transform="translate(-6072.072 -515.447)" fill="#292929"/><path d="M6033,543.34v1.048a.7.7,0,1,0,1.4,0V543.34a.7.7,0,1,0-1.4,0Z" transform="translate(-6025.489 -515.447)" fill="#292929"/><path d="M6058.3,548.012a1.507,1.507,0,0,1-2.275,0,.7.7,0,1,0-1.054.918,2.9,2.9,0,0,0,4.381,0,.7.7,0,1,0-1.052-.918Z" transform="translate(-6042.639 -519.484)" fill="#292929"/><path d="M6024.768,440.817a14.18,14.18,0,0,1-2.014-7.471c0-.041,0-.083,0-.123a10.533,10.533,0,0,0-.2-2.03.7.7,0,0,0-.042-.136,21.756,21.756,0,0,0-1.008-2.791h0a10.45,10.45,0,0,0-7.032-5.274c.59-2.109,1.956-3.286,2.785-3.429a2.25,2.25,0,1,0-.764-4.435,7.4,7.4,0,0,0-4.312,2.695,10.95,10.95,0,0,0-2.321,5.228,10.468,10.468,0,0,0-8.011,10.161c0,.093,0,.185,0,.278a13.286,13.286,0,0,1-1.97,7.247,14.494,14.494,0,0,0-2.1,7.495,14.26,14.26,0,0,0,2.758,8.421,16.51,16.51,0,0,0,2.212,2.445,14.418,14.418,0,0,0,9.136,3.679c.139,0,.277.006.416.006a14.52,14.52,0,0,0,12.458-21.965Zm-11.507-22.1a6.015,6.015,0,0,1,3.476-2.21.852.852,0,0,1,.984.7.854.854,0,0,1-.7.985,4.391,4.391,0,0,0-2.477,1.636,7.7,7.7,0,0,0-1.463,2.971c-.259-.019-.52-.03-.781-.03-.328,0-.652.016-.972.046A9.442,9.442,0,0,1,6013.261,418.716Zm8.191,38.955a12.961,12.961,0,0,1-17.6.523.621.621,0,0,0-.163-.141.688.688,0,0,0-.131-.091,11.992,11.992,0,0,1-1.876-2.127,12.865,12.865,0,0,1-2.493-7.6,13.093,13.093,0,0,1,1.9-6.772,14.681,14.681,0,0,0,2.172-8.009c0-.08,0-.16,0-.241a9.052,9.052,0,0,1,17.026-4.284.024.024,0,0,1,.005.008,7.737,7.737,0,0,1,.9,2.525h0a9.1,9.1,0,0,1,.17,1.76c0,.036,0,.072,0,.107a15.576,15.576,0,0,0,2.213,8.205,13.125,13.125,0,0,1-2.118,16.136Z" transform="translate(-5997.787 -415.095)" fill="#292929"/></g></g></svg>