<svg id="Grupo_98" data-name="Grupo 98" xmlns="http://www.w3.org/2000/svg" width="40" height="35.778" viewBox="0 0 40 35.778">
  <g id="Grupo_97" data-name="Grupo 97">
    <path id="Caminho_44" data-name="Caminho 44" d="M38.477,44.3a.781.781,0,1,0-1.25.937,6.1,6.1,0,0,1,1.211,3.635,5.321,5.321,0,0,1-1.369,3.566l-.045.05a2.715,2.715,0,0,1-1.939.9h-.1a.062.062,0,0,1-.049-.023.115.115,0,0,1-.028-.089c.009-.1.014-.212.014-.318A4.032,4.032,0,0,0,33.6,49.978a4.674,4.674,0,0,0-1.758-1,.781.781,0,0,0-1.014.746V51.9a14.437,14.437,0,0,0,.546,3.934,12.874,12.874,0,0,1,.487,3.509,1.891,1.891,0,0,1-1.889,1.889H29.24a1.891,1.891,0,0,1-1.889-1.889,12.872,12.872,0,0,1,.48-3.481,14.408,14.408,0,0,0,.554-3.89V49.72a.781.781,0,0,0-1.014-.746,4.672,4.672,0,0,0-1.758,1,4.032,4.032,0,0,0-1.322,2.982c0,.1,0,.2.013.3a.133.133,0,0,1-.032.1.067.067,0,0,1-.049.026H24.2a2.674,2.674,0,0,1-1.984-.884l-.064-.071a5.321,5.321,0,0,1-1.368-3.565,6.022,6.022,0,0,1,1.775-4.286l.253-.253a6.527,6.527,0,0,1,4.646-1.925h3.953c.176,0,.354.006.529.019a.781.781,0,1,0,.111-1.558c-.212-.015-.427-.023-.64-.023H27.454A8.079,8.079,0,0,0,21.7,43.227l-.253.253a7.655,7.655,0,0,0-1.306,1.741,11.533,11.533,0,0,0-10.18.947l-.071.044a4.689,4.689,0,0,1-5.942-.856l-.1-.113a8.892,8.892,0,0,1-2.287-5.958,10.128,10.128,0,0,1,3.321-7.491,12.372,12.372,0,0,1,8.324-3.211h5.615a12.372,12.372,0,0,1,8.324,3.211,10.073,10.073,0,0,1,3.288,6.681.781.781,0,0,0,1.557-.125,11.63,11.63,0,0,0-3.8-7.714,13.931,13.931,0,0,0-9.373-3.616H13.207a13.931,13.931,0,0,0-9.373,3.616A11.693,11.693,0,0,0,0,39.284a10.451,10.451,0,0,0,2.688,7l.1.113a6.251,6.251,0,0,0,7.922,1.141l.071-.044c.159-.1.321-.19.485-.278v1.22a10.118,10.118,0,0,1-.951,4.267,11.69,11.69,0,0,0-1.1,4.931,5.166,5.166,0,0,0,5.16,5.16h3.29a5.166,5.166,0,0,0,5.16-5.16,11.666,11.666,0,0,0-.419-3.082,4.232,4.232,0,0,0,1.786.4h.032a1.622,1.622,0,0,0,1.2-.534,1.7,1.7,0,0,0,.436-1.285c0-.057-.007-.116-.007-.174a2.466,2.466,0,0,1,.809-1.824q.078-.071.16-.136v.976a12.848,12.848,0,0,1-.5,3.468,14.435,14.435,0,0,0-.538,3.9A3.455,3.455,0,0,0,29.24,62.8h.738a3.455,3.455,0,0,0,3.451-3.451,14.439,14.439,0,0,0-.546-3.934,12.872,12.872,0,0,1-.487-3.508V51q.082.065.16.136a2.467,2.467,0,0,1,.809,1.824c0,.061,0,.122-.008.182a1.684,1.684,0,0,0,.426,1.274,1.614,1.614,0,0,0,1.189.536h.152a4.284,4.284,0,0,0,3.063-1.421l.045-.05A6.882,6.882,0,0,0,40,48.87,7.671,7.671,0,0,0,38.477,44.3ZM17.668,61.236h-3.29a3.6,3.6,0,0,1-3.6-3.6,10.117,10.117,0,0,1,.951-4.267,11.691,11.691,0,0,0,1.1-4.931v-1.9a9.955,9.955,0,0,1,6.711.123,7.651,7.651,0,0,0-.323,2.208,6.9,6.9,0,0,0,.157,1.458,11.676,11.676,0,0,0,.941,3.043,10.118,10.118,0,0,1,.951,4.267A3.6,3.6,0,0,1,17.668,61.236Z" transform="translate(0 -27.02)" fill="#ab803b"/>
  </g>
</svg>
