<svg xmlns="http://www.w3.org/2000/svg" width="39.996" height="40" viewBox="0 0 39.996 40">
  <path id="salad" d="M2.32,20.628A5.586,5.586,0,0,0,2,24.334a5.838,5.838,0,0,0,3.7,3.982,34.2,34.2,0,0,0,4.345,6.9A12.721,12.721,0,0,0,20.1,40a6.222,6.222,0,0,0,4.891-2.4,6.487,6.487,0,0,0,1.09-5.5,6.149,6.149,0,0,1-.226-1.67,5.586,5.586,0,0,1,6.683-5.414l3.711.742a1.171,1.171,0,0,0,1.373-.89,4.844,4.844,0,0,0-.734-4.208,4.787,4.787,0,0,0-.438-.517A7,7,0,0,0,35.3,7.443q.013-.206.013-.409A7.039,7.039,0,0,0,28.279,0a7.143,7.143,0,0,0-5.763,2.925l-.044-.021a7.014,7.014,0,0,0-12.25,1.63,5.73,5.73,0,0,0-6.1,2.836A5.878,5.878,0,0,0,3.4,10.74,5.886,5.886,0,0,0,.2,17.543,5.758,5.758,0,0,0,2.32,20.628ZM23.174,5.7a1.172,1.172,0,0,0,.795-.644,4.763,4.763,0,0,1,4.309-2.708,4.655,4.655,0,0,1,4.567,5.707,1.172,1.172,0,0,0,.94,1.408,4.665,4.665,0,0,1-.527,9.254,1.172,1.172,0,0,0-.025,2.337A2.443,2.443,0,0,1,35,22.045a2.183,2.183,0,0,1,.453,1.164L33,22.718a7.929,7.929,0,0,0-9.486,7.712,8.4,8.4,0,0,0,.3,2.26,4.154,4.154,0,0,1-.677,3.472,3.8,3.8,0,0,1-.668.67s-2.883-11.691-2.919-11.862l3.315-1.657a1.172,1.172,0,0,0-1.048-2.1l-2.542,1.271a13.285,13.285,0,0,1,.391-3.438,8.9,8.9,0,0,1,4.868-5.914l4.231,3.049a1.172,1.172,0,0,0,1.37-1.9L27.34,12.271l2.388-.584a1.172,1.172,0,0,0-.557-2.277l-3.583.876a11.245,11.245,0,0,0-6.354,4.268L18.8,12.633a1.172,1.172,0,1,0-2.285.52l1.065,4.682c-.067.214-.129.429-.184.648a15.687,15.687,0,0,0,0,7.563l2.783,11.271a23.156,23.156,0,0,1-5.926-13.409,1.172,1.172,0,0,0-.605-.916,3.508,3.508,0,0,1-1.848-3.07,3.461,3.461,0,0,1,1.216-2.633,1.172,1.172,0,0,0,0-1.764A3.461,3.461,0,0,1,11.8,12.892a3.519,3.519,0,0,1,3.515-3.515,1.172,1.172,0,0,0,1.172-1.172A3.519,3.519,0,0,1,20,4.69a3.467,3.467,0,0,1,2.178.783,1.173,1.173,0,0,0,1,.226ZM5.024,12.631A1.172,1.172,0,0,0,5.853,11.2a3.585,3.585,0,0,1,.316-2.684,3.352,3.352,0,0,1,2.08-1.621,3.466,3.466,0,0,1,2.307.193,1.172,1.172,0,0,0,1.623-.868A4.675,4.675,0,0,1,18.306,2.6a5.877,5.877,0,0,0-4.068,4.535,5.835,5.835,0,0,0-3.593,9.275,5.8,5.8,0,0,0,1.334,8.309,25.77,25.77,0,0,0,5.068,12.515,10.359,10.359,0,0,1-5.174-3.481,29.98,29.98,0,0,1-4.205-6.809,1.173,1.173,0,0,0-.822-.728,3.508,3.508,0,0,1-2.579-2.487,3.561,3.561,0,0,1,.583-2.858,1.172,1.172,0,0,0-.457-1.7A3.577,3.577,0,0,1,2.46,16.936a3.561,3.561,0,0,1,2.564-4.305Zm0,0" transform="translate(0 0.001)" fill="#00a450"/>
</svg>
