<svg id="Grupo_86" data-name="Grupo 86" xmlns="http://www.w3.org/2000/svg" width="35.752" height="40" viewBox="0 0 35.752 40">
  <g id="Grupo_85" data-name="Grupo 85" transform="translate(0 0)">
    <path id="Caminho_38" data-name="Caminho 38" d="M56.706,9.782c-2.672-2.511-6.891-2.007-8.388-1.73a12.475,12.475,0,0,0-4.227-3.6A17.935,17.935,0,0,0,42.573.445.81.81,0,0,0,41.843,0L37.617.138a.825.825,0,0,0-.73,1.212,18.168,18.168,0,0,1,1.277,3.124,11.76,11.76,0,0,0-4.146,3.57c-1.526-.277-5.7-.73-8.409,1.745q-3.154,2.9-2.037,9.541a.805.805,0,0,0,.051.168c.029.095,3.8,9.563,3.168,15.826a.832.832,0,0,0,0,.248,4.884,4.884,0,0,0,2.438,3.11,6.147,6.147,0,0,0,2.92.672,13.3,13.3,0,0,0,4.643-1.037,5.657,5.657,0,0,0,4.38,1.672c2.278,0,3.584-.46,4.6-1.584a13.009,13.009,0,0,0,4.38.927,6.132,6.132,0,0,0,2.92-.686,4.884,4.884,0,0,0,2.416-3.1.832.832,0,0,0,0-.248c-.62-6.241,3.168-15.709,3.2-15.8a.805.805,0,0,0,.051-.168C59.473,14.943,58.808,11.723,56.706,9.782ZM41.318,1.671a16.169,16.169,0,0,1,1.5,9.045.789.789,0,0,0,.153.584.854.854,0,0,0,.511.328c.73.139,2.664.73,3.256,1.832A6.081,6.081,0,0,0,45.07,16.1c-1.8-1.46-5.541-3.65-9.935-.8a6.067,6.067,0,0,0-1.212-1.715c1.358-1.54,4.577-1.934,5.84-1.949a.832.832,0,0,0,.547-.226.847.847,0,0,0,.27-.555,19.761,19.761,0,0,0-1.686-9.11Zm15.87,17.293c-.409,1.029-3.869,9.964-3.3,16.359A3.241,3.241,0,0,1,52.3,37.215c-1.3.686-3.219.613-5.584-.2a31.719,31.719,0,0,0,1.46-3.227.828.828,0,0,0-1.533-.628c-1.861,4.533-2.336,5.183-5.511,5.183a4.073,4.073,0,0,1-3.124-1.153,5.438,5.438,0,0,1-1.146-3.65.828.828,0,0,0-1.65-.131,7.745,7.745,0,0,0,.657,3.511c-2.482.9-4.489,1.007-5.84.307a3.241,3.241,0,0,1-1.577-1.905c.569-6.387-2.92-15.33-3.3-16.359-.628-3.752-.109-6.431,1.54-7.95,2.628-2.431,7.409-1.241,7.453-1.241a.832.832,0,0,0,.905-.365,10.745,10.745,0,0,1,3.5-3.285,18.029,18.029,0,0,1,.365,3.927c-1.5.124-4.708.62-6.322,2.57a7.212,7.212,0,0,0-3.416-.876.829.829,0,0,0,0,1.657c4.066.095,4.723,3.263,4.745,3.394a.825.825,0,0,0,1.329.5c5.314-4.212,9.541.73,9.716.964a.825.825,0,0,0,1.46-.438c.555-5.11,6.468-4.723,6.716-4.7a.828.828,0,0,0,.139-1.65,9.555,9.555,0,0,0-5.161,1.037,6.567,6.567,0,0,0-3.6-2.329,17.87,17.87,0,0,0-.066-3.592,13.331,13.331,0,0,1,2.869,2.876.832.832,0,0,0,.861.3c.044,0,4.811-1.2,7.453,1.234C57.3,12.526,57.816,15.205,57.188,18.965Z" transform="translate(-23.277 0)" fill="#df9f20"/>
  </g>
</svg>
